<?xml version="1.0" encoding="utf-8" standalone="no"?>
<!DOCTYPE svg PUBLIC "-//W3C//DTD SVG 1.1//EN"
  "http://www.w3.org/Graphics/SVG/1.1/DTD/svg11.dtd">
<!-- Created with matplotlib (http://matplotlib.org/) -->
<svg height="432pt" version="1.1" viewBox="0 0 576 432" width="576pt" xmlns="http://www.w3.org/2000/svg" xmlns:xlink="http://www.w3.org/1999/xlink">
 <defs>
  <style type="text/css">
*{stroke-linecap:butt;stroke-linejoin:round;stroke-miterlimit:100000;}
  </style>
 </defs>
 <g id="figure_1">
  <g id="patch_1">
   <path d="M 0 432 
L 576 432 
L 576 0 
L 0 0 
z
" style="fill:#ffffff;"/>
  </g>
  <g id="axes_1">
   <g id="patch_2">
    <path d="M 72 388.8 
L 518.4 388.8 
L 518.4 43.2 
L 72 43.2 
z
" style="fill:#ffffff;"/>
   </g>
   <g id="patch_3">
    <path clip-path="url(#pc2965cde42)" d="M 99.9 388.8 
L 155.7 388.8 
L 155.7 388.789761 
L 99.9 388.789761 
z
" style="fill:#8dd3c7;stroke:#000000;stroke-linejoin:miter;"/>
   </g>
   <g id="patch_4">
    <path clip-path="url(#pc2965cde42)" d="M 211.5 388.8 
L 267.3 388.8 
L 267.3 388.8 
L 211.5 388.8 
z
" style="fill:#8dd3c7;stroke:#000000;stroke-linejoin:miter;"/>
   </g>
   <g id="patch_5">
    <path clip-path="url(#pc2965cde42)" d="M 323.1 388.8 
L 378.9 388.8 
L 378.9 388.770593 
L 323.1 388.770593 
z
" style="fill:#8dd3c7;stroke:#000000;stroke-linejoin:miter;"/>
   </g>
   <g id="patch_6">
    <path clip-path="url(#pc2965cde42)" d="M 434.7 388.8 
L 490.5 388.8 
L 490.5 388.8 
L 434.7 388.8 
z
" style="fill:#8dd3c7;stroke:#000000;stroke-linejoin:miter;"/>
   </g>
   <g id="patch_7">
    <path clip-path="url(#pc2965cde42)" d="M 99.9 388.789761 
L 155.7 388.789761 
L 155.7 388.784641 
L 99.9 388.784641 
z
" style="fill:#bee6be;stroke:#000000;stroke-linejoin:miter;"/>
   </g>
   <g id="patch_8">
    <path clip-path="url(#pc2965cde42)" d="M 211.5 388.8 
L 267.3 388.8 
L 267.3 388.8 
L 211.5 388.8 
z
" style="fill:#bee6be;stroke:#000000;stroke-linejoin:miter;"/>
   </g>
   <g id="patch_9">
    <path clip-path="url(#pc2965cde42)" d="M 323.1 388.770593 
L 378.9 388.770593 
L 378.9 388.755889 
L 323.1 388.755889 
z
" style="fill:#bee6be;stroke:#000000;stroke-linejoin:miter;"/>
   </g>
   <g id="patch_10">
    <path clip-path="url(#pc2965cde42)" d="M 434.7 388.8 
L 490.5 388.8 
L 490.5 388.8 
L 434.7 388.8 
z
" style="fill:#bee6be;stroke:#000000;stroke-linejoin:miter;"/>
   </g>
   <g id="patch_11">
    <path clip-path="url(#pc2965cde42)" d="M 99.9 388.784641 
L 155.7 388.784641 
L 155.7 380.004687 
L 99.9 380.004687 
z
" style="fill:#eff9b6;stroke:#000000;stroke-linejoin:miter;"/>
   </g>
   <g id="patch_12">
    <path clip-path="url(#pc2965cde42)" d="M 211.5 388.8 
L 267.3 388.8 
L 267.3 373.10396 
L 211.5 373.10396 
z
" style="fill:#eff9b6;stroke:#000000;stroke-linejoin:miter;"/>
   </g>
   <g id="patch_13">
    <path clip-path="url(#pc2965cde42)" d="M 323.1 388.755889 
L 378.9 388.755889 
L 378.9 363.539271 
L 323.1 363.539271 
z
" style="fill:#eff9b6;stroke:#000000;stroke-linejoin:miter;"/>
   </g>
   <g id="patch_14">
    <path clip-path="url(#pc2965cde42)" d="M 434.7 388.8 
L 490.5 388.8 
L 490.5 364.13577 
L 434.7 364.13577 
z
" style="fill:#eff9b6;stroke:#000000;stroke-linejoin:miter;"/>
   </g>
   <g id="patch_15">
    <path clip-path="url(#pc2965cde42)" d="M 99.9 380.004687 
L 155.7 380.004687 
L 155.7 378.676175 
L 99.9 378.676175 
z
" style="fill:#ecebbe;stroke:#000000;stroke-linejoin:miter;"/>
   </g>
   <g id="patch_16">
    <path clip-path="url(#pc2965cde42)" d="M 211.5 373.10396 
L 267.3 373.10396 
L 267.3 370.137026 
L 211.5 370.137026 
z
" style="fill:#ecebbe;stroke:#000000;stroke-linejoin:miter;"/>
   </g>
   <g id="patch_17">
    <path clip-path="url(#pc2965cde42)" d="M 323.1 363.539271 
L 378.9 363.539271 
L 378.9 359.723695 
L 323.1 359.723695 
z
" style="fill:#ecebbe;stroke:#000000;stroke-linejoin:miter;"/>
   </g>
   <g id="patch_18">
    <path clip-path="url(#pc2965cde42)" d="M 434.7 364.13577 
L 490.5 364.13577 
L 490.5 359.473629 
L 434.7 359.473629 
z
" style="fill:#ecebbe;stroke:#000000;stroke-linejoin:miter;"/>
   </g>
   <g id="patch_19">
    <path clip-path="url(#pc2965cde42)" d="M 99.9 378.676175 
L 155.7 378.676175 
L 155.7 371.04555 
L 99.9 371.04555 
z
" style="fill:#d0cdcf;stroke:#000000;stroke-linejoin:miter;"/>
   </g>
   <g id="patch_20">
    <path clip-path="url(#pc2965cde42)" d="M 211.5 370.137026 
L 267.3 370.137026 
L 267.3 351.856882 
L 211.5 351.856882 
z
" style="fill:#d0cdcf;stroke:#000000;stroke-linejoin:miter;"/>
   </g>
   <g id="patch_21">
    <path clip-path="url(#pc2965cde42)" d="M 323.1 359.723695 
L 378.9 359.723695 
L 378.9 337.808028 
L 323.1 337.808028 
z
" style="fill:#d0cdcf;stroke:#000000;stroke-linejoin:miter;"/>
   </g>
   <g id="patch_22">
    <path clip-path="url(#pc2965cde42)" d="M 434.7 359.473629 
L 490.5 359.473629 
L 490.5 330.748825 
L 434.7 330.748825 
z
" style="fill:#d0cdcf;stroke:#000000;stroke-linejoin:miter;"/>
   </g>
   <g id="patch_23">
    <path clip-path="url(#pc2965cde42)" d="M 99.9 371.04555 
L 155.7 371.04555 
L 155.7 369.2742 
L 99.9 369.2742 
z
" style="fill:#caaec5;stroke:#000000;stroke-linejoin:miter;"/>
   </g>
   <g id="patch_24">
    <path clip-path="url(#pc2965cde42)" d="M 211.5 351.856882 
L 267.3 351.856882 
L 267.3 343.147494 
L 211.5 343.147494 
z
" style="fill:#caaec5;stroke:#000000;stroke-linejoin:miter;"/>
   </g>
   <g id="patch_25">
    <path clip-path="url(#pc2965cde42)" d="M 323.1 337.808028 
L 378.9 337.808028 
L 378.9 332.720594 
L 323.1 332.720594 
z
" style="fill:#caaec5;stroke:#000000;stroke-linejoin:miter;"/>
   </g>
   <g id="patch_26">
    <path clip-path="url(#pc2965cde42)" d="M 434.7 330.748825 
L 490.5 330.748825 
L 490.5 317.063185 
L 434.7 317.063185 
z
" style="fill:#caaec5;stroke:#000000;stroke-linejoin:miter;"/>
   </g>
   <g id="patch_27">
    <path clip-path="url(#pc2965cde42)" d="M 99.9 369.2742 
L 155.7 369.2742 
L 155.7 360.002773 
L 99.9 360.002773 
z
" style="fill:#e59598;stroke:#000000;stroke-linejoin:miter;"/>
   </g>
   <g id="patch_28">
    <path clip-path="url(#pc2965cde42)" d="M 211.5 343.147494 
L 267.3 343.147494 
L 267.3 321.517585 
L 211.5 321.517585 
z
" style="fill:#e59598;stroke:#000000;stroke-linejoin:miter;"/>
   </g>
   <g id="patch_29">
    <path clip-path="url(#pc2965cde42)" d="M 323.1 332.720594 
L 378.9 332.720594 
L 378.9 306.092433 
L 323.1 306.092433 
z
" style="fill:#e59598;stroke:#000000;stroke-linejoin:miter;"/>
   </g>
   <g id="patch_30">
    <path clip-path="url(#pc2965cde42)" d="M 434.7 317.063185 
L 490.5 317.063185 
L 490.5 283.074674 
L 434.7 283.074674 
z
" style="fill:#e59598;stroke:#000000;stroke-linejoin:miter;"/>
   </g>
   <g id="patch_31">
    <path clip-path="url(#pc2965cde42)" d="M 99.9 360.002773 
L 155.7 360.002773 
L 155.7 356.700691 
L 99.9 356.700691 
z
" style="fill:#f38378;stroke:#000000;stroke-linejoin:miter;"/>
   </g>
   <g id="patch_32">
    <path clip-path="url(#pc2965cde42)" d="M 211.5 321.517585 
L 267.3 321.517585 
L 267.3 311.755414 
L 211.5 311.755414 
z
" style="fill:#f38378;stroke:#000000;stroke-linejoin:miter;"/>
   </g>
   <g id="patch_33">
    <path clip-path="url(#pc2965cde42)" d="M 323.1 306.092433 
L 378.9 306.092433 
L 378.9 296.608632 
L 323.1 296.608632 
z
" style="fill:#f38378;stroke:#000000;stroke-linejoin:miter;"/>
   </g>
   <g id="patch_34">
    <path clip-path="url(#pc2965cde42)" d="M 434.7 283.074674 
L 490.5 283.074674 
L 490.5 267.734726 
L 434.7 267.734726 
z
" style="fill:#f38378;stroke:#000000;stroke-linejoin:miter;"/>
   </g>
   <g id="patch_35">
    <path clip-path="url(#pc2965cde42)" d="M 99.9 356.700691 
L 155.7 356.700691 
L 155.7 353.406288 
L 99.9 353.406288 
z
" style="fill:#be98a2;stroke:#000000;stroke-linejoin:miter;"/>
   </g>
   <g id="patch_36">
    <path clip-path="url(#pc2965cde42)" d="M 211.5 311.755414 
L 267.3 311.755414 
L 267.3 306.300083 
L 211.5 306.300083 
z
" style="fill:#be98a2;stroke:#000000;stroke-linejoin:miter;"/>
   </g>
   <g id="patch_37">
    <path clip-path="url(#pc2965cde42)" d="M 323.1 296.608632 
L 378.9 296.608632 
L 378.9 287.146887 
L 323.1 287.146887 
z
" style="fill:#be98a2;stroke:#000000;stroke-linejoin:miter;"/>
   </g>
   <g id="patch_38">
    <path clip-path="url(#pc2965cde42)" d="M 434.7 267.734726 
L 490.5 267.734726 
L 490.5 259.162402 
L 434.7 259.162402 
z
" style="fill:#be98a2;stroke:#000000;stroke-linejoin:miter;"/>
   </g>
   <g id="patch_39">
    <path clip-path="url(#pc2965cde42)" d="M 99.9 353.406288 
L 155.7 353.406288 
L 155.7 350.17332 
L 99.9 350.17332 
z
" style="fill:#84afd0;stroke:#000000;stroke-linejoin:miter;"/>
   </g>
   <g id="patch_40">
    <path clip-path="url(#pc2965cde42)" d="M 211.5 306.300083 
L 267.3 306.300083 
L 267.3 289.646968 
L 211.5 289.646968 
z
" style="fill:#84afd0;stroke:#000000;stroke-linejoin:miter;"/>
   </g>
   <g id="patch_41">
    <path clip-path="url(#pc2965cde42)" d="M 323.1 287.146887 
L 378.9 287.146887 
L 378.9 277.861584 
L 323.1 277.861584 
z
" style="fill:#84afd0;stroke:#000000;stroke-linejoin:miter;"/>
   </g>
   <g id="patch_42">
    <path clip-path="url(#pc2965cde42)" d="M 434.7 259.162402 
L 490.5 259.162402 
L 490.5 232.994256 
L 434.7 232.994256 
z
" style="fill:#84afd0;stroke:#000000;stroke-linejoin:miter;"/>
   </g>
   <g id="patch_43">
    <path clip-path="url(#pc2965cde42)" d="M 99.9 350.17332 
L 155.7 350.17332 
L 155.7 329.81048 
L 99.9 329.81048 
z
" style="fill:#b2b2a6;stroke:#000000;stroke-linejoin:miter;"/>
   </g>
   <g id="patch_44">
    <path clip-path="url(#pc2965cde42)" d="M 211.5 289.646968 
L 267.3 289.646968 
L 267.3 273.08956 
L 211.5 273.08956 
z
" style="fill:#b2b2a6;stroke:#000000;stroke-linejoin:miter;"/>
   </g>
   <g id="patch_45">
    <path clip-path="url(#pc2965cde42)" d="M 323.1 277.861584 
L 378.9 277.861584 
L 378.9 219.378145 
L 323.1 219.378145 
z
" style="fill:#b2b2a6;stroke:#000000;stroke-linejoin:miter;"/>
   </g>
   <g id="patch_46">
    <path clip-path="url(#pc2965cde42)" d="M 434.7 232.994256 
L 490.5 232.994256 
L 490.5 206.976501 
L 434.7 206.976501 
z
" style="fill:#b2b2a6;stroke:#000000;stroke-linejoin:miter;"/>
   </g>
   <g id="patch_47">
    <path clip-path="url(#pc2965cde42)" d="M 99.9 329.81048 
L 155.7 329.81048 
L 155.7 319.376925 
L 99.9 319.376925 
z
" style="fill:#e8b375;stroke:#000000;stroke-linejoin:miter;"/>
   </g>
   <g id="patch_48">
    <path clip-path="url(#pc2965cde42)" d="M 211.5 273.08956 
L 267.3 273.08956 
L 267.3 245.908613 
L 211.5 245.908613 
z
" style="fill:#e8b375;stroke:#000000;stroke-linejoin:miter;"/>
   </g>
   <g id="patch_49">
    <path clip-path="url(#pc2965cde42)" d="M 323.1 219.378145 
L 378.9 219.378145 
L 378.9 189.412274 
L 323.1 189.412274 
z
" style="fill:#e8b375;stroke:#000000;stroke-linejoin:miter;"/>
   </g>
   <g id="patch_50">
    <path clip-path="url(#pc2965cde42)" d="M 434.7 206.976501 
L 490.5 206.976501 
L 490.5 164.265274 
L 434.7 164.265274 
z
" style="fill:#e8b375;stroke:#000000;stroke-linejoin:miter;"/>
   </g>
   <g id="patch_51">
    <path clip-path="url(#pc2965cde42)" d="M 99.9 319.376925 
L 155.7 319.376925 
L 155.7 306.887888 
L 99.9 306.887888 
z
" style="fill:#eabf64;stroke:#000000;stroke-linejoin:miter;"/>
   </g>
   <g id="patch_52">
    <path clip-path="url(#pc2965cde42)" d="M 211.5 245.908613 
L 267.3 245.908613 
L 267.3 219.971864 
L 211.5 219.971864 
z
" style="fill:#eabf64;stroke:#000000;stroke-linejoin:miter;"/>
   </g>
   <g id="patch_53">
    <path clip-path="url(#pc2965cde42)" d="M 323.1 189.412274 
L 378.9 189.412274 
L 378.9 153.542922 
L 323.1 153.542922 
z
" style="fill:#eabf64;stroke:#000000;stroke-linejoin:miter;"/>
   </g>
   <g id="patch_54">
    <path clip-path="url(#pc2965cde42)" d="M 434.7 164.265274 
L 490.5 164.265274 
L 490.5 123.509138 
L 434.7 123.509138 
z
" style="fill:#eabf64;stroke:#000000;stroke-linejoin:miter;"/>
   </g>
   <g id="patch_55">
    <path clip-path="url(#pc2965cde42)" d="M 99.9 306.887888 
L 155.7 306.887888 
L 155.7 305.390432 
L 99.9 305.390432 
z
" style="fill:#c6d367;stroke:#000000;stroke-linejoin:miter;"/>
   </g>
   <g id="patch_56">
    <path clip-path="url(#pc2965cde42)" d="M 211.5 219.971864 
L 267.3 219.971864 
L 267.3 218.631958 
L 211.5 218.631958 
z
" style="fill:#c6d367;stroke:#000000;stroke-linejoin:miter;"/>
   </g>
   <g id="patch_57">
    <path clip-path="url(#pc2965cde42)" d="M 323.1 153.542922 
L 378.9 153.542922 
L 378.9 149.242128 
L 323.1 149.242128 
z
" style="fill:#c6d367;stroke:#000000;stroke-linejoin:miter;"/>
   </g>
   <g id="patch_58">
    <path clip-path="url(#pc2965cde42)" d="M 434.7 123.509138 
L 490.5 123.509138 
L 490.5 121.403655 
L 434.7 121.403655 
z
" style="fill:#c6d367;stroke:#000000;stroke-linejoin:miter;"/>
   </g>
   <g id="patch_59">
    <path clip-path="url(#pc2965cde42)" d="M 99.9 305.390432 
L 155.7 305.390432 
L 155.7 299.679622 
L 99.9 299.679622 
z
" style="fill:#bfdb7e;stroke:#000000;stroke-linejoin:miter;"/>
   </g>
   <g id="patch_60">
    <path clip-path="url(#pc2965cde42)" d="M 211.5 218.631958 
L 267.3 218.631958 
L 267.3 208.965494 
L 211.5 208.965494 
z
" style="fill:#bfdb7e;stroke:#000000;stroke-linejoin:miter;"/>
   </g>
   <g id="patch_61">
    <path clip-path="url(#pc2965cde42)" d="M 323.1 149.242128 
L 378.9 149.242128 
L 378.9 132.840299 
L 323.1 132.840299 
z
" style="fill:#bfdb7e;stroke:#000000;stroke-linejoin:miter;"/>
   </g>
   <g id="patch_62">
    <path clip-path="url(#pc2965cde42)" d="M 434.7 121.403655 
L 490.5 121.403655 
L 490.5 106.214099 
L 434.7 106.214099 
z
" style="fill:#bfdb7e;stroke:#000000;stroke-linejoin:miter;"/>
   </g>
   <g id="patch_63">
    <path clip-path="url(#pc2965cde42)" d="M 99.9 299.679622 
L 155.7 299.679622 
L 155.7 290.764001 
L 99.9 290.764001 
z
" style="fill:#dfd4b3;stroke:#000000;stroke-linejoin:miter;"/>
   </g>
   <g id="patch_64">
    <path clip-path="url(#pc2965cde42)" d="M 211.5 208.965494 
L 267.3 208.965494 
L 267.3 192.025256 
L 211.5 192.025256 
z
" style="fill:#dfd4b3;stroke:#000000;stroke-linejoin:miter;"/>
   </g>
   <g id="patch_65">
    <path clip-path="url(#pc2965cde42)" d="M 323.1 132.840299 
L 378.9 132.840299 
L 378.9 107.234036 
L 323.1 107.234036 
z
" style="fill:#dfd4b3;stroke:#000000;stroke-linejoin:miter;"/>
   </g>
   <g id="patch_66">
    <path clip-path="url(#pc2965cde42)" d="M 434.7 106.214099 
L 490.5 106.214099 
L 490.5 79.594778 
L 434.7 79.594778 
z
" style="fill:#dfd4b3;stroke:#000000;stroke-linejoin:miter;"/>
   </g>
   <g id="patch_67">
    <path clip-path="url(#pc2965cde42)" d="M 99.9 290.764001 
L 155.7 290.764001 
L 155.7 287.410723 
L 99.9 287.410723 
z
" style="fill:#fbcde5;stroke:#000000;stroke-linejoin:miter;"/>
   </g>
   <g id="patch_68">
    <path clip-path="url(#pc2965cde42)" d="M 211.5 192.025256 
L 267.3 192.025256 
L 267.3 190.876765 
L 211.5 190.876765 
z
" style="fill:#fbcde5;stroke:#000000;stroke-linejoin:miter;"/>
   </g>
   <g id="patch_69">
    <path clip-path="url(#pc2965cde42)" d="M 323.1 107.234036 
L 378.9 107.234036 
L 378.9 97.603199 
L 323.1 97.603199 
z
" style="fill:#fbcde5;stroke:#000000;stroke-linejoin:miter;"/>
   </g>
   <g id="patch_70">
    <path clip-path="url(#pc2965cde42)" d="M 434.7 79.594778 
L 490.5 79.594778 
L 490.5 77.790078 
L 434.7 77.790078 
z
" style="fill:#fbcde5;stroke:#000000;stroke-linejoin:miter;"/>
   </g>
   <g id="patch_71">
    <path clip-path="url(#pc2965cde42)" d="M 99.9 287.410723 
L 155.7 287.410723 
L 155.7 62.142176 
L 99.9 62.142176 
z
" style="fill:#ead3df;stroke:#000000;stroke-linejoin:miter;"/>
   </g>
   <g id="patch_72">
    <path clip-path="url(#pc2965cde42)" d="M 211.5 190.876765 
L 267.3 190.876765 
L 267.3 65.212739 
L 211.5 65.212739 
z
" style="fill:#ead3df;stroke:#000000;stroke-linejoin:miter;"/>
   </g>
   <g id="patch_73">
    <path clip-path="url(#pc2965cde42)" d="M 323.1 388.8 
L 378.9 388.8 
L 378.9 388.8 
L 323.1 388.8 
z
" style="fill:#ead3df;stroke:#000000;stroke-linejoin:miter;"/>
   </g>
   <g id="patch_74">
    <path clip-path="url(#pc2965cde42)" d="M 434.7 388.8 
L 490.5 388.8 
L 490.5 388.8 
L 434.7 388.8 
z
" style="fill:#ead3df;stroke:#000000;stroke-linejoin:miter;"/>
   </g>
   <g id="patch_75">
    <path clip-path="url(#pc2965cde42)" d="M 99.9 62.142176 
L 155.7 62.142176 
L 155.7 51.043085 
L 99.9 51.043085 
z
" style="fill:#dbd8da;stroke:#000000;stroke-linejoin:miter;"/>
   </g>
   <g id="patch_76">
    <path clip-path="url(#pc2965cde42)" d="M 211.5 65.212739 
L 267.3 65.212739 
L 267.3 54.5892 
L 211.5 54.5892 
z
" style="fill:#dbd8da;stroke:#000000;stroke-linejoin:miter;"/>
   </g>
   <g id="patch_77">
    <path clip-path="url(#pc2965cde42)" d="M 323.1 97.603199 
L 378.9 97.603199 
L 378.9 65.725865 
L 323.1 65.725865 
z
" style="fill:#dbd8da;stroke:#000000;stroke-linejoin:miter;"/>
   </g>
   <g id="patch_78">
    <path clip-path="url(#pc2965cde42)" d="M 434.7 77.790078 
L 490.5 77.790078 
L 490.5 61.096606 
L 434.7 61.096606 
z
" style="fill:#dbd8da;stroke:#000000;stroke-linejoin:miter;"/>
   </g>
   <g id="patch_79">
    <path clip-path="url(#pc2965cde42)" d="M 99.9 51.043085 
L 155.7 51.043085 
L 155.7 47.034511 
L 99.9 47.034511 
z
" style="fill:#ceb8cf;stroke:#000000;stroke-linejoin:miter;"/>
   </g>
   <g id="patch_80">
    <path clip-path="url(#pc2965cde42)" d="M 211.5 54.5892 
L 267.3 54.5892 
L 267.3 51.239435 
L 211.5 51.239435 
z
" style="fill:#ceb8cf;stroke:#000000;stroke-linejoin:miter;"/>
   </g>
   <g id="patch_81">
    <path clip-path="url(#pc2965cde42)" d="M 323.1 65.725865 
L 378.9 65.725865 
L 378.9 54.212972 
L 323.1 54.212972 
z
" style="fill:#ceb8cf;stroke:#000000;stroke-linejoin:miter;"/>
   </g>
   <g id="patch_82">
    <path clip-path="url(#pc2965cde42)" d="M 434.7 61.096606 
L 490.5 61.096606 
L 490.5 55.832898 
L 434.7 55.832898 
z
" style="fill:#ceb8cf;stroke:#000000;stroke-linejoin:miter;"/>
   </g>
   <g id="patch_83">
    <path clip-path="url(#pc2965cde42)" d="M 99.9 47.034511 
L 155.7 47.034511 
L 155.7 43.20512 
L 99.9 43.20512 
z
" style="fill:#c292c3;stroke:#000000;stroke-linejoin:miter;"/>
   </g>
   <g id="patch_84">
    <path clip-path="url(#pc2965cde42)" d="M 211.5 51.239435 
L 267.3 51.239435 
L 267.3 43.2 
L 211.5 43.2 
z
" style="fill:#c292c3;stroke:#000000;stroke-linejoin:miter;"/>
   </g>
   <g id="patch_85">
    <path clip-path="url(#pc2965cde42)" d="M 323.1 54.212972 
L 378.9 54.212972 
L 378.9 43.214704 
L 323.1 43.214704 
z
" style="fill:#c292c3;stroke:#000000;stroke-linejoin:miter;"/>
   </g>
   <g id="patch_86">
    <path clip-path="url(#pc2965cde42)" d="M 434.7 55.832898 
L 490.5 55.832898 
L 490.5 43.2 
L 434.7 43.2 
z
" style="fill:#c292c3;stroke:#000000;stroke-linejoin:miter;"/>
   </g>
   <g id="patch_87">
    <path clip-path="url(#pc2965cde42)" d="M 99.9 43.20512 
L 155.7 43.20512 
L 155.7 43.2 
L 99.9 43.2 
z
" style="fill:#c09dbf;stroke:#000000;stroke-linejoin:miter;"/>
   </g>
   <g id="patch_88">
    <path clip-path="url(#pc2965cde42)" d="M 211.5 388.8 
L 267.3 388.8 
L 267.3 388.8 
L 211.5 388.8 
z
" style="fill:#c09dbf;stroke:#000000;stroke-linejoin:miter;"/>
   </g>
   <g id="patch_89">
    <path clip-path="url(#pc2965cde42)" d="M 323.1 43.214704 
L 378.9 43.214704 
L 378.9 43.2 
L 323.1 43.2 
z
" style="fill:#c09dbf;stroke:#000000;stroke-linejoin:miter;"/>
   </g>
   <g id="patch_90">
    <path clip-path="url(#pc2965cde42)" d="M 434.7 388.8 
L 490.5 388.8 
L 490.5 388.8 
L 434.7 388.8 
z
" style="fill:#c09dbf;stroke:#000000;stroke-linejoin:miter;"/>
   </g>
   <g id="patch_91">
    <path d="M 72 43.2 
L 518.4 43.2 
" style="fill:none;stroke:#000000;stroke-linecap:square;stroke-linejoin:miter;"/>
   </g>
   <g id="patch_92">
    <path d="M 518.4 388.8 
L 518.4 43.2 
" style="fill:none;stroke:#000000;stroke-linecap:square;stroke-linejoin:miter;"/>
   </g>
   <g id="patch_93">
    <path d="M 72 388.8 
L 518.4 388.8 
" style="fill:none;stroke:#000000;stroke-linecap:square;stroke-linejoin:miter;"/>
   </g>
   <g id="patch_94">
    <path d="M 72 388.8 
L 72 43.2 
" style="fill:none;stroke:#000000;stroke-linecap:square;stroke-linejoin:miter;"/>
   </g>
   <g id="matplotlib.axis_1">
    <g id="xtick_1">
     <g id="line2d_1">
      <defs>
       <path d="M 0 0 
L 0 -4 
" id="m48459d6b0e" style="stroke:#000000;stroke-width:0.5;"/>
      </defs>
      <g>
       <use style="stroke:#000000;stroke-width:0.5;" x="127.8" xlink:href="#m48459d6b0e" y="388.8"/>
      </g>
     </g>
     <g id="line2d_2">
      <defs>
       <path d="M 0 0 
L 0 4 
" id="m055cc1ebfd" style="stroke:#000000;stroke-width:0.5;"/>
      </defs>
      <g>
       <use style="stroke:#000000;stroke-width:0.5;" x="127.8" xlink:href="#m055cc1ebfd" y="43.2"/>
      </g>
     </g>
     <g id="text_1">
      <!-- All -->
      <defs>
       <path d="M 34.1875 63.1875 
L 20.796875 26.90625 
L 47.609375 26.90625 
z
M 28.609375 72.90625 
L 39.796875 72.90625 
L 67.578125 0 
L 57.328125 0 
L 50.6875 18.703125 
L 17.828125 18.703125 
L 11.1875 0 
L 0.78125 0 
z
" id="DejaVuSans-41"/>
       <path d="M 9.421875 75.984375 
L 18.40625 75.984375 
L 18.40625 0 
L 9.421875 0 
z
" id="DejaVuSans-6c"/>
      </defs>
      <g transform="translate(120.361875 401.918125)scale(0.12 -0.12)">
       <use xlink:href="#DejaVuSans-41"/>
       <use x="68.408203125" xlink:href="#DejaVuSans-6c"/>
       <use x="96.19140625" xlink:href="#DejaVuSans-6c"/>
      </g>
     </g>
    </g>
    <g id="xtick_2">
     <g id="line2d_3">
      <g>
       <use style="stroke:#000000;stroke-width:0.5;" x="239.4" xlink:href="#m48459d6b0e" y="388.8"/>
      </g>
     </g>
     <g id="line2d_4">
      <g>
       <use style="stroke:#000000;stroke-width:0.5;" x="239.4" xlink:href="#m055cc1ebfd" y="43.2"/>
      </g>
     </g>
     <g id="text_2">
      <!-- Core -->
      <defs>
       <path d="M 30.609375 48.390625 
Q 23.390625 48.390625 19.1875 42.75 
Q 14.984375 37.109375 14.984375 27.296875 
Q 14.984375 17.484375 19.15625 11.84375 
Q 23.34375 6.203125 30.609375 6.203125 
Q 37.796875 6.203125 41.984375 11.859375 
Q 46.1875 17.53125 46.1875 27.296875 
Q 46.1875 37.015625 41.984375 42.703125 
Q 37.796875 48.390625 30.609375 48.390625 
M 30.609375 56 
Q 42.328125 56 49.015625 48.375 
Q 55.71875 40.765625 55.71875 27.296875 
Q 55.71875 13.875 49.015625 6.21875 
Q 42.328125 -1.421875 30.609375 -1.421875 
Q 18.84375 -1.421875 12.171875 6.21875 
Q 5.515625 13.875 5.515625 27.296875 
Q 5.515625 40.765625 12.171875 48.375 
Q 18.84375 56 30.609375 56 
" id="DejaVuSans-6f"/>
       <path d="M 41.109375 46.296875 
Q 39.59375 47.171875 37.8125 47.578125 
Q 36.03125 48 33.890625 48 
Q 26.265625 48 22.1875 43.046875 
Q 18.109375 38.09375 18.109375 28.8125 
L 18.109375 0 
L 9.078125 0 
L 9.078125 54.6875 
L 18.109375 54.6875 
L 18.109375 46.1875 
Q 20.953125 51.171875 25.484375 53.578125 
Q 30.03125 56 36.53125 56 
Q 37.453125 56 38.578125 55.875 
Q 39.703125 55.765625 41.0625 55.515625 
z
" id="DejaVuSans-72"/>
       <path d="M 56.203125 29.59375 
L 56.203125 25.203125 
L 14.890625 25.203125 
Q 15.484375 15.921875 20.484375 11.0625 
Q 25.484375 6.203125 34.421875 6.203125 
Q 39.59375 6.203125 44.453125 7.46875 
Q 49.3125 8.734375 54.109375 11.28125 
L 54.109375 2.78125 
Q 49.265625 0.734375 44.1875 -0.34375 
Q 39.109375 -1.421875 33.890625 -1.421875 
Q 20.796875 -1.421875 13.15625 6.1875 
Q 5.515625 13.8125 5.515625 26.8125 
Q 5.515625 40.234375 12.765625 48.109375 
Q 20.015625 56 32.328125 56 
Q 43.359375 56 49.78125 48.890625 
Q 56.203125 41.796875 56.203125 29.59375 
M 47.21875 32.234375 
Q 47.125 39.59375 43.09375 43.984375 
Q 39.0625 48.390625 32.421875 48.390625 
Q 24.90625 48.390625 20.390625 44.140625 
Q 15.875 39.890625 15.1875 32.171875 
z
" id="DejaVuSans-65"/>
       <path d="M 64.40625 67.28125 
L 64.40625 56.890625 
Q 59.421875 61.53125 53.78125 63.8125 
Q 48.140625 66.109375 41.796875 66.109375 
Q 29.296875 66.109375 22.65625 58.46875 
Q 16.015625 50.828125 16.015625 36.375 
Q 16.015625 21.96875 22.65625 14.328125 
Q 29.296875 6.6875 41.796875 6.6875 
Q 48.140625 6.6875 53.78125 8.984375 
Q 59.421875 11.28125 64.40625 15.921875 
L 64.40625 5.609375 
Q 59.234375 2.09375 53.4375 0.328125 
Q 47.65625 -1.421875 41.21875 -1.421875 
Q 24.65625 -1.421875 15.125 8.703125 
Q 5.609375 18.84375 5.609375 36.375 
Q 5.609375 53.953125 15.125 64.078125 
Q 24.65625 74.21875 41.21875 74.21875 
Q 47.75 74.21875 53.53125 72.484375 
Q 59.328125 70.75 64.40625 67.28125 
" id="DejaVuSans-43"/>
      </defs>
      <g transform="translate(225.3825 401.918125)scale(0.12 -0.12)">
       <use xlink:href="#DejaVuSans-43"/>
       <use x="69.82421875" xlink:href="#DejaVuSans-6f"/>
       <use x="131.005859375" xlink:href="#DejaVuSans-72"/>
       <use x="172.087890625" xlink:href="#DejaVuSans-65"/>
      </g>
     </g>
    </g>
    <g id="xtick_3">
     <g id="line2d_5">
      <g>
       <use style="stroke:#000000;stroke-width:0.5;" x="351.0" xlink:href="#m48459d6b0e" y="388.8"/>
      </g>
     </g>
     <g id="line2d_6">
      <g>
       <use style="stroke:#000000;stroke-width:0.5;" x="351.0" xlink:href="#m055cc1ebfd" y="43.2"/>
      </g>
     </g>
     <g id="text_3">
      <!-- All, unknown -->
      <defs>
       <path d="M 11.71875 12.40625 
L 22.015625 12.40625 
L 22.015625 4 
L 14.015625 -11.625 
L 7.71875 -11.625 
L 11.71875 4 
z
" id="DejaVuSans-2c"/>
       <path d="M 54.890625 33.015625 
L 54.890625 0 
L 45.90625 0 
L 45.90625 32.71875 
Q 45.90625 40.484375 42.875 44.328125 
Q 39.84375 48.1875 33.796875 48.1875 
Q 26.515625 48.1875 22.3125 43.546875 
Q 18.109375 38.921875 18.109375 30.90625 
L 18.109375 0 
L 9.078125 0 
L 9.078125 54.6875 
L 18.109375 54.6875 
L 18.109375 46.1875 
Q 21.34375 51.125 25.703125 53.5625 
Q 30.078125 56 35.796875 56 
Q 45.21875 56 50.046875 50.171875 
Q 54.890625 44.34375 54.890625 33.015625 
" id="DejaVuSans-6e"/>
       <path d="M 9.078125 75.984375 
L 18.109375 75.984375 
L 18.109375 31.109375 
L 44.921875 54.6875 
L 56.390625 54.6875 
L 27.390625 29.109375 
L 57.625 0 
L 45.90625 0 
L 18.109375 26.703125 
L 18.109375 0 
L 9.078125 0 
z
" id="DejaVuSans-6b"/>
       <path id="DejaVuSans-20"/>
       <path d="M 8.5 21.578125 
L 8.5 54.6875 
L 17.484375 54.6875 
L 17.484375 21.921875 
Q 17.484375 14.15625 20.5 10.265625 
Q 23.53125 6.390625 29.59375 6.390625 
Q 36.859375 6.390625 41.078125 11.03125 
Q 45.3125 15.671875 45.3125 23.6875 
L 45.3125 54.6875 
L 54.296875 54.6875 
L 54.296875 0 
L 45.3125 0 
L 45.3125 8.40625 
Q 42.046875 3.421875 37.71875 1 
Q 33.40625 -1.421875 27.6875 -1.421875 
Q 18.265625 -1.421875 13.375 4.4375 
Q 8.5 10.296875 8.5 21.578125 
M 31.109375 56 
z
" id="DejaVuSans-75"/>
       <path d="M 4.203125 54.6875 
L 13.1875 54.6875 
L 24.421875 12.015625 
L 35.59375 54.6875 
L 46.1875 54.6875 
L 57.421875 12.015625 
L 68.609375 54.6875 
L 77.59375 54.6875 
L 63.28125 0 
L 52.6875 0 
L 40.921875 44.828125 
L 29.109375 0 
L 18.5 0 
z
" id="DejaVuSans-77"/>
      </defs>
      <g transform="translate(312.485625 401.918125)scale(0.12 -0.12)">
       <use xlink:href="#DejaVuSans-41"/>
       <use x="68.408203125" xlink:href="#DejaVuSans-6c"/>
       <use x="96.19140625" xlink:href="#DejaVuSans-6c"/>
       <use x="123.974609375" xlink:href="#DejaVuSans-2c"/>
       <use x="155.76171875" xlink:href="#DejaVuSans-20"/>
       <use x="187.548828125" xlink:href="#DejaVuSans-75"/>
       <use x="250.927734375" xlink:href="#DejaVuSans-6e"/>
       <use x="314.306640625" xlink:href="#DejaVuSans-6b"/>
       <use x="372.216796875" xlink:href="#DejaVuSans-6e"/>
       <use x="435.595703125" xlink:href="#DejaVuSans-6f"/>
       <use x="496.77734375" xlink:href="#DejaVuSans-77"/>
       <use x="578.564453125" xlink:href="#DejaVuSans-6e"/>
      </g>
      <!-- excluded -->
      <defs>
       <path d="M 45.40625 46.390625 
L 45.40625 75.984375 
L 54.390625 75.984375 
L 54.390625 0 
L 45.40625 0 
L 45.40625 8.203125 
Q 42.578125 3.328125 38.25 0.953125 
Q 33.9375 -1.421875 27.875 -1.421875 
Q 17.96875 -1.421875 11.734375 6.484375 
Q 5.515625 14.40625 5.515625 27.296875 
Q 5.515625 40.1875 11.734375 48.09375 
Q 17.96875 56 27.875 56 
Q 33.9375 56 38.25 53.625 
Q 42.578125 51.265625 45.40625 46.390625 
M 14.796875 27.296875 
Q 14.796875 17.390625 18.875 11.75 
Q 22.953125 6.109375 30.078125 6.109375 
Q 37.203125 6.109375 41.296875 11.75 
Q 45.40625 17.390625 45.40625 27.296875 
Q 45.40625 37.203125 41.296875 42.84375 
Q 37.203125 48.484375 30.078125 48.484375 
Q 22.953125 48.484375 18.875 42.84375 
Q 14.796875 37.203125 14.796875 27.296875 
" id="DejaVuSans-64"/>
       <path d="M 54.890625 54.6875 
L 35.109375 28.078125 
L 55.90625 0 
L 45.3125 0 
L 29.390625 21.484375 
L 13.484375 0 
L 2.875 0 
L 24.125 28.609375 
L 4.6875 54.6875 
L 15.28125 54.6875 
L 29.78125 35.203125 
L 44.28125 54.6875 
z
" id="DejaVuSans-78"/>
       <path d="M 48.78125 52.59375 
L 48.78125 44.1875 
Q 44.96875 46.296875 41.140625 47.34375 
Q 37.3125 48.390625 33.40625 48.390625 
Q 24.65625 48.390625 19.8125 42.84375 
Q 14.984375 37.3125 14.984375 27.296875 
Q 14.984375 17.28125 19.8125 11.734375 
Q 24.65625 6.203125 33.40625 6.203125 
Q 37.3125 6.203125 41.140625 7.25 
Q 44.96875 8.296875 48.78125 10.40625 
L 48.78125 2.09375 
Q 45.015625 0.34375 40.984375 -0.53125 
Q 36.96875 -1.421875 32.421875 -1.421875 
Q 20.0625 -1.421875 12.78125 6.34375 
Q 5.515625 14.109375 5.515625 27.296875 
Q 5.515625 40.671875 12.859375 48.328125 
Q 20.21875 56 33.015625 56 
Q 37.15625 56 41.109375 55.140625 
Q 45.0625 54.296875 48.78125 52.59375 
" id="DejaVuSans-63"/>
      </defs>
      <g transform="translate(323.6803125 415.3555)scale(0.12 -0.12)">
       <use xlink:href="#DejaVuSans-65"/>
       <use x="61.5078125" xlink:href="#DejaVuSans-78"/>
       <use x="120.671875" xlink:href="#DejaVuSans-63"/>
       <use x="175.65234375" xlink:href="#DejaVuSans-6c"/>
       <use x="203.435546875" xlink:href="#DejaVuSans-75"/>
       <use x="266.814453125" xlink:href="#DejaVuSans-64"/>
       <use x="330.291015625" xlink:href="#DejaVuSans-65"/>
       <use x="391.814453125" xlink:href="#DejaVuSans-64"/>
      </g>
     </g>
    </g>
    <g id="xtick_4">
     <g id="line2d_7">
      <g>
       <use style="stroke:#000000;stroke-width:0.5;" x="462.6" xlink:href="#m48459d6b0e" y="388.8"/>
      </g>
     </g>
     <g id="line2d_8">
      <g>
       <use style="stroke:#000000;stroke-width:0.5;" x="462.6" xlink:href="#m055cc1ebfd" y="43.2"/>
      </g>
     </g>
     <g id="text_4">
      <!-- Core, unknown -->
      <g transform="translate(417.50625 401.918125)scale(0.12 -0.12)">
       <use xlink:href="#DejaVuSans-43"/>
       <use x="69.82421875" xlink:href="#DejaVuSans-6f"/>
       <use x="131.005859375" xlink:href="#DejaVuSans-72"/>
       <use x="172.087890625" xlink:href="#DejaVuSans-65"/>
       <use x="233.611328125" xlink:href="#DejaVuSans-2c"/>
       <use x="265.3984375" xlink:href="#DejaVuSans-20"/>
       <use x="297.185546875" xlink:href="#DejaVuSans-75"/>
       <use x="360.564453125" xlink:href="#DejaVuSans-6e"/>
       <use x="423.943359375" xlink:href="#DejaVuSans-6b"/>
       <use x="481.853515625" xlink:href="#DejaVuSans-6e"/>
       <use x="545.232421875" xlink:href="#DejaVuSans-6f"/>
       <use x="606.4140625" xlink:href="#DejaVuSans-77"/>
       <use x="688.201171875" xlink:href="#DejaVuSans-6e"/>
      </g>
      <!-- excluded -->
      <g transform="translate(435.2803125 415.3555)scale(0.12 -0.12)">
       <use xlink:href="#DejaVuSans-65"/>
       <use x="61.5078125" xlink:href="#DejaVuSans-78"/>
       <use x="120.671875" xlink:href="#DejaVuSans-63"/>
       <use x="175.65234375" xlink:href="#DejaVuSans-6c"/>
       <use x="203.435546875" xlink:href="#DejaVuSans-75"/>
       <use x="266.814453125" xlink:href="#DejaVuSans-64"/>
       <use x="330.291015625" xlink:href="#DejaVuSans-65"/>
       <use x="391.814453125" xlink:href="#DejaVuSans-64"/>
      </g>
     </g>
    </g>
   </g>
   <g id="matplotlib.axis_2">
    <g id="ytick_1">
     <g id="line2d_9">
      <defs>
       <path d="M 0 0 
L 4 0 
" id="m93f8eb6518" style="stroke:#000000;stroke-width:0.5;"/>
      </defs>
      <g>
       <use style="stroke:#000000;stroke-width:0.5;" x="72.0" xlink:href="#m93f8eb6518" y="388.8"/>
      </g>
     </g>
     <g id="line2d_10">
      <defs>
       <path d="M 0 0 
L -4 0 
" id="m9cb123b812" style="stroke:#000000;stroke-width:0.5;"/>
      </defs>
      <g>
       <use style="stroke:#000000;stroke-width:0.5;" x="518.4" xlink:href="#m9cb123b812" y="388.8"/>
      </g>
     </g>
     <g id="text_5">
      <!-- 0.0 -->
      <defs>
       <path d="M 31.78125 66.40625 
Q 24.171875 66.40625 20.328125 58.90625 
Q 16.5 51.421875 16.5 36.375 
Q 16.5 21.390625 20.328125 13.890625 
Q 24.171875 6.390625 31.78125 6.390625 
Q 39.453125 6.390625 43.28125 13.890625 
Q 47.125 21.390625 47.125 36.375 
Q 47.125 51.421875 43.28125 58.90625 
Q 39.453125 66.40625 31.78125 66.40625 
M 31.78125 74.21875 
Q 44.046875 74.21875 50.515625 64.515625 
Q 56.984375 54.828125 56.984375 36.375 
Q 56.984375 17.96875 50.515625 8.265625 
Q 44.046875 -1.421875 31.78125 -1.421875 
Q 19.53125 -1.421875 13.0625 8.265625 
Q 6.59375 17.96875 6.59375 36.375 
Q 6.59375 54.828125 13.0625 64.515625 
Q 19.53125 74.21875 31.78125 74.21875 
" id="DejaVuSans-30"/>
       <path d="M 10.6875 12.40625 
L 21 12.40625 
L 21 0 
L 10.6875 0 
z
" id="DejaVuSans-2e"/>
      </defs>
      <g transform="translate(48.91625 392.11125)scale(0.12 -0.12)">
       <use xlink:href="#DejaVuSans-30"/>
       <use x="63.623046875" xlink:href="#DejaVuSans-2e"/>
       <use x="95.41015625" xlink:href="#DejaVuSans-30"/>
      </g>
     </g>
    </g>
    <g id="ytick_2">
     <g id="line2d_11">
      <g>
       <use style="stroke:#000000;stroke-width:0.5;" x="72.0" xlink:href="#m93f8eb6518" y="319.68"/>
      </g>
     </g>
     <g id="line2d_12">
      <g>
       <use style="stroke:#000000;stroke-width:0.5;" x="518.4" xlink:href="#m9cb123b812" y="319.68"/>
      </g>
     </g>
     <g id="text_6">
      <!-- 0.2 -->
      <defs>
       <path d="M 19.1875 8.296875 
L 53.609375 8.296875 
L 53.609375 0 
L 7.328125 0 
L 7.328125 8.296875 
Q 12.9375 14.109375 22.625 23.890625 
Q 32.328125 33.6875 34.8125 36.53125 
Q 39.546875 41.84375 41.421875 45.53125 
Q 43.3125 49.21875 43.3125 52.78125 
Q 43.3125 58.59375 39.234375 62.25 
Q 35.15625 65.921875 28.609375 65.921875 
Q 23.96875 65.921875 18.8125 64.3125 
Q 13.671875 62.703125 7.8125 59.421875 
L 7.8125 69.390625 
Q 13.765625 71.78125 18.9375 73 
Q 24.125 74.21875 28.421875 74.21875 
Q 39.75 74.21875 46.484375 68.546875 
Q 53.21875 62.890625 53.21875 53.421875 
Q 53.21875 48.921875 51.53125 44.890625 
Q 49.859375 40.875 45.40625 35.40625 
Q 44.1875 33.984375 37.640625 27.21875 
Q 31.109375 20.453125 19.1875 8.296875 
" id="DejaVuSans-32"/>
      </defs>
      <g transform="translate(48.91625 322.99125)scale(0.12 -0.12)">
       <use xlink:href="#DejaVuSans-30"/>
       <use x="63.623046875" xlink:href="#DejaVuSans-2e"/>
       <use x="95.41015625" xlink:href="#DejaVuSans-32"/>
      </g>
     </g>
    </g>
    <g id="ytick_3">
     <g id="line2d_13">
      <g>
       <use style="stroke:#000000;stroke-width:0.5;" x="72.0" xlink:href="#m93f8eb6518" y="250.56"/>
      </g>
     </g>
     <g id="line2d_14">
      <g>
       <use style="stroke:#000000;stroke-width:0.5;" x="518.4" xlink:href="#m9cb123b812" y="250.56"/>
      </g>
     </g>
     <g id="text_7">
      <!-- 0.4 -->
      <defs>
       <path d="M 37.796875 64.3125 
L 12.890625 25.390625 
L 37.796875 25.390625 
z
M 35.203125 72.90625 
L 47.609375 72.90625 
L 47.609375 25.390625 
L 58.015625 25.390625 
L 58.015625 17.1875 
L 47.609375 17.1875 
L 47.609375 0 
L 37.796875 0 
L 37.796875 17.1875 
L 4.890625 17.1875 
L 4.890625 26.703125 
z
" id="DejaVuSans-34"/>
      </defs>
      <g transform="translate(48.91625 253.87125)scale(0.12 -0.12)">
       <use xlink:href="#DejaVuSans-30"/>
       <use x="63.623046875" xlink:href="#DejaVuSans-2e"/>
       <use x="95.41015625" xlink:href="#DejaVuSans-34"/>
      </g>
     </g>
    </g>
    <g id="ytick_4">
     <g id="line2d_15">
      <g>
       <use style="stroke:#000000;stroke-width:0.5;" x="72.0" xlink:href="#m93f8eb6518" y="181.44"/>
      </g>
     </g>
     <g id="line2d_16">
      <g>
       <use style="stroke:#000000;stroke-width:0.5;" x="518.4" xlink:href="#m9cb123b812" y="181.44"/>
      </g>
     </g>
     <g id="text_8">
      <!-- 0.6 -->
      <defs>
       <path d="M 33.015625 40.375 
Q 26.375 40.375 22.484375 35.828125 
Q 18.609375 31.296875 18.609375 23.390625 
Q 18.609375 15.53125 22.484375 10.953125 
Q 26.375 6.390625 33.015625 6.390625 
Q 39.65625 6.390625 43.53125 10.953125 
Q 47.40625 15.53125 47.40625 23.390625 
Q 47.40625 31.296875 43.53125 35.828125 
Q 39.65625 40.375 33.015625 40.375 
M 52.59375 71.296875 
L 52.59375 62.3125 
Q 48.875 64.0625 45.09375 64.984375 
Q 41.3125 65.921875 37.59375 65.921875 
Q 27.828125 65.921875 22.671875 59.328125 
Q 17.53125 52.734375 16.796875 39.40625 
Q 19.671875 43.65625 24.015625 45.921875 
Q 28.375 48.1875 33.59375 48.1875 
Q 44.578125 48.1875 50.953125 41.515625 
Q 57.328125 34.859375 57.328125 23.390625 
Q 57.328125 12.15625 50.6875 5.359375 
Q 44.046875 -1.421875 33.015625 -1.421875 
Q 20.359375 -1.421875 13.671875 8.265625 
Q 6.984375 17.96875 6.984375 36.375 
Q 6.984375 53.65625 15.1875 63.9375 
Q 23.390625 74.21875 37.203125 74.21875 
Q 40.921875 74.21875 44.703125 73.484375 
Q 48.484375 72.75 52.59375 71.296875 
" id="DejaVuSans-36"/>
      </defs>
      <g transform="translate(48.91625 184.75125)scale(0.12 -0.12)">
       <use xlink:href="#DejaVuSans-30"/>
       <use x="63.623046875" xlink:href="#DejaVuSans-2e"/>
       <use x="95.41015625" xlink:href="#DejaVuSans-36"/>
      </g>
     </g>
    </g>
    <g id="ytick_5">
     <g id="line2d_17">
      <g>
       <use style="stroke:#000000;stroke-width:0.5;" x="72.0" xlink:href="#m93f8eb6518" y="112.32"/>
      </g>
     </g>
     <g id="line2d_18">
      <g>
       <use style="stroke:#000000;stroke-width:0.5;" x="518.4" xlink:href="#m9cb123b812" y="112.32"/>
      </g>
     </g>
     <g id="text_9">
      <!-- 0.8 -->
      <defs>
       <path d="M 31.78125 34.625 
Q 24.75 34.625 20.71875 30.859375 
Q 16.703125 27.09375 16.703125 20.515625 
Q 16.703125 13.921875 20.71875 10.15625 
Q 24.75 6.390625 31.78125 6.390625 
Q 38.8125 6.390625 42.859375 10.171875 
Q 46.921875 13.96875 46.921875 20.515625 
Q 46.921875 27.09375 42.890625 30.859375 
Q 38.875 34.625 31.78125 34.625 
M 21.921875 38.8125 
Q 15.578125 40.375 12.03125 44.71875 
Q 8.5 49.078125 8.5 55.328125 
Q 8.5 64.0625 14.71875 69.140625 
Q 20.953125 74.21875 31.78125 74.21875 
Q 42.671875 74.21875 48.875 69.140625 
Q 55.078125 64.0625 55.078125 55.328125 
Q 55.078125 49.078125 51.53125 44.71875 
Q 48 40.375 41.703125 38.8125 
Q 48.828125 37.15625 52.796875 32.3125 
Q 56.78125 27.484375 56.78125 20.515625 
Q 56.78125 9.90625 50.3125 4.234375 
Q 43.84375 -1.421875 31.78125 -1.421875 
Q 19.734375 -1.421875 13.25 4.234375 
Q 6.78125 9.90625 6.78125 20.515625 
Q 6.78125 27.484375 10.78125 32.3125 
Q 14.796875 37.15625 21.921875 38.8125 
M 18.3125 54.390625 
Q 18.3125 48.734375 21.84375 45.5625 
Q 25.390625 42.390625 31.78125 42.390625 
Q 38.140625 42.390625 41.71875 45.5625 
Q 45.3125 48.734375 45.3125 54.390625 
Q 45.3125 60.0625 41.71875 63.234375 
Q 38.140625 66.40625 31.78125 66.40625 
Q 25.390625 66.40625 21.84375 63.234375 
Q 18.3125 60.0625 18.3125 54.390625 
" id="DejaVuSans-38"/>
      </defs>
      <g transform="translate(48.91625 115.63125)scale(0.12 -0.12)">
       <use xlink:href="#DejaVuSans-30"/>
       <use x="63.623046875" xlink:href="#DejaVuSans-2e"/>
       <use x="95.41015625" xlink:href="#DejaVuSans-38"/>
      </g>
     </g>
    </g>
    <g id="ytick_6">
     <g id="line2d_19">
      <g>
       <use style="stroke:#000000;stroke-width:0.5;" x="72.0" xlink:href="#m93f8eb6518" y="43.2"/>
      </g>
     </g>
     <g id="line2d_20">
      <g>
       <use style="stroke:#000000;stroke-width:0.5;" x="518.4" xlink:href="#m9cb123b812" y="43.2"/>
      </g>
     </g>
     <g id="text_10">
      <!-- 1.0 -->
      <defs>
       <path d="M 12.40625 8.296875 
L 28.515625 8.296875 
L 28.515625 63.921875 
L 10.984375 60.40625 
L 10.984375 69.390625 
L 28.421875 72.90625 
L 38.28125 72.90625 
L 38.28125 8.296875 
L 54.390625 8.296875 
L 54.390625 0 
L 12.40625 0 
z
" id="DejaVuSans-31"/>
      </defs>
      <g transform="translate(48.91625 46.51125)scale(0.12 -0.12)">
       <use xlink:href="#DejaVuSans-31"/>
       <use x="63.623046875" xlink:href="#DejaVuSans-2e"/>
       <use x="95.41015625" xlink:href="#DejaVuSans-30"/>
      </g>
     </g>
    </g>
   </g>
   <g id="legend_1">
    <g id="patch_95">
     <path d="M 523.4 383.8 
L 568.028125 383.8 
L 568.028125 57.88125 
L 523.4 57.88125 
z
" style="fill:#ffffff;stroke:#000000;stroke-linejoin:miter;"/>
    </g>
    <g id="patch_96">
     <path d="M 527.4 69.479687 
L 547.4 69.479687 
L 547.4 62.479687 
L 527.4 62.479687 
z
" style="fill:#c09dbf;stroke:#000000;stroke-linejoin:miter;"/>
    </g>
    <g id="text_11">
     <!-- Z -->
     <defs>
      <path d="M 5.609375 72.90625 
L 62.890625 72.90625 
L 62.890625 65.375 
L 16.796875 8.296875 
L 64.015625 8.296875 
L 64.015625 0 
L 4.5 0 
L 4.5 7.515625 
L 50.59375 64.59375 
L 5.609375 64.59375 
z
" id="DejaVuSans-5a"/>
     </defs>
     <g transform="translate(555.4 69.4796875)scale(0.1 -0.1)">
      <use xlink:href="#DejaVuSans-5a"/>
     </g>
    </g>
    <g id="patch_97">
     <path d="M 527.4 84.157812 
L 547.4 84.157812 
L 547.4 77.157812 
L 527.4 77.157812 
z
" style="fill:#c292c3;stroke:#000000;stroke-linejoin:miter;"/>
    </g>
    <g id="text_12">
     <!-- V -->
     <defs>
      <path d="M 28.609375 0 
L 0.78125 72.90625 
L 11.078125 72.90625 
L 34.1875 11.53125 
L 57.328125 72.90625 
L 67.578125 72.90625 
L 39.796875 0 
z
" id="DejaVuSans-56"/>
     </defs>
     <g transform="translate(555.4 84.1578125)scale(0.1 -0.1)">
      <use xlink:href="#DejaVuSans-56"/>
     </g>
    </g>
    <g id="patch_98">
     <path d="M 527.4 98.835937 
L 547.4 98.835937 
L 547.4 91.835937 
L 527.4 91.835937 
z
" style="fill:#ceb8cf;stroke:#000000;stroke-linejoin:miter;"/>
    </g>
    <g id="text_13">
     <!-- U -->
     <defs>
      <path d="M 8.6875 72.90625 
L 18.609375 72.90625 
L 18.609375 28.609375 
Q 18.609375 16.890625 22.84375 11.734375 
Q 27.09375 6.59375 36.625 6.59375 
Q 46.09375 6.59375 50.34375 11.734375 
Q 54.59375 16.890625 54.59375 28.609375 
L 54.59375 72.90625 
L 64.5 72.90625 
L 64.5 27.390625 
Q 64.5 13.140625 57.4375 5.859375 
Q 50.390625 -1.421875 36.625 -1.421875 
Q 22.796875 -1.421875 15.734375 5.859375 
Q 8.6875 13.140625 8.6875 27.390625 
z
" id="DejaVuSans-55"/>
     </defs>
     <g transform="translate(555.4 98.8359375)scale(0.1 -0.1)">
      <use xlink:href="#DejaVuSans-55"/>
     </g>
    </g>
    <g id="patch_99">
     <path d="M 527.4 113.514062 
L 547.4 113.514062 
L 547.4 106.514062 
L 527.4 106.514062 
z
" style="fill:#dbd8da;stroke:#000000;stroke-linejoin:miter;"/>
    </g>
    <g id="text_14">
     <!-- T -->
     <defs>
      <path d="M -0.296875 72.90625 
L 61.375 72.90625 
L 61.375 64.59375 
L 35.5 64.59375 
L 35.5 0 
L 25.59375 0 
L 25.59375 64.59375 
L -0.296875 64.59375 
z
" id="DejaVuSans-54"/>
     </defs>
     <g transform="translate(555.4 113.5140625)scale(0.1 -0.1)">
      <use xlink:href="#DejaVuSans-54"/>
     </g>
    </g>
    <g id="patch_100">
     <path d="M 527.4 128.192187 
L 547.4 128.192187 
L 547.4 121.192187 
L 527.4 121.192187 
z
" style="fill:#ead3df;stroke:#000000;stroke-linejoin:miter;"/>
    </g>
    <g id="text_15">
     <!-- S -->
     <defs>
      <path d="M 53.515625 70.515625 
L 53.515625 60.890625 
Q 47.90625 63.578125 42.921875 64.890625 
Q 37.9375 66.21875 33.296875 66.21875 
Q 25.25 66.21875 20.875 63.09375 
Q 16.5 59.96875 16.5 54.203125 
Q 16.5 49.359375 19.40625 46.890625 
Q 22.3125 44.4375 30.421875 42.921875 
L 36.375 41.703125 
Q 47.40625 39.59375 52.65625 34.296875 
Q 57.90625 29 57.90625 20.125 
Q 57.90625 9.515625 50.796875 4.046875 
Q 43.703125 -1.421875 29.984375 -1.421875 
Q 24.8125 -1.421875 18.96875 -0.25 
Q 13.140625 0.921875 6.890625 3.21875 
L 6.890625 13.375 
Q 12.890625 10.015625 18.65625 8.296875 
Q 24.421875 6.59375 29.984375 6.59375 
Q 38.421875 6.59375 43.015625 9.90625 
Q 47.609375 13.234375 47.609375 19.390625 
Q 47.609375 24.75 44.3125 27.78125 
Q 41.015625 30.8125 33.5 32.328125 
L 27.484375 33.5 
Q 16.453125 35.6875 11.515625 40.375 
Q 6.59375 45.0625 6.59375 53.421875 
Q 6.59375 63.09375 13.40625 68.65625 
Q 20.21875 74.21875 32.171875 74.21875 
Q 37.3125 74.21875 42.625 73.28125 
Q 47.953125 72.359375 53.515625 70.515625 
" id="DejaVuSans-53"/>
     </defs>
     <g transform="translate(555.4 128.1921875)scale(0.1 -0.1)">
      <use xlink:href="#DejaVuSans-53"/>
     </g>
    </g>
    <g id="patch_101">
     <path d="M 527.4 142.870312 
L 547.4 142.870312 
L 547.4 135.870312 
L 527.4 135.870312 
z
" style="fill:#fbcde5;stroke:#000000;stroke-linejoin:miter;"/>
    </g>
    <g id="text_16">
     <!-- Q -->
     <defs>
      <path d="M 39.40625 66.21875 
Q 28.65625 66.21875 22.328125 58.203125 
Q 16.015625 50.203125 16.015625 36.375 
Q 16.015625 22.609375 22.328125 14.59375 
Q 28.65625 6.59375 39.40625 6.59375 
Q 50.140625 6.59375 56.421875 14.59375 
Q 62.703125 22.609375 62.703125 36.375 
Q 62.703125 50.203125 56.421875 58.203125 
Q 50.140625 66.21875 39.40625 66.21875 
M 53.21875 1.3125 
L 66.21875 -12.890625 
L 54.296875 -12.890625 
L 43.5 -1.21875 
Q 41.890625 -1.3125 41.03125 -1.359375 
Q 40.1875 -1.421875 39.40625 -1.421875 
Q 24.03125 -1.421875 14.8125 8.859375 
Q 5.609375 19.140625 5.609375 36.375 
Q 5.609375 53.65625 14.8125 63.9375 
Q 24.03125 74.21875 39.40625 74.21875 
Q 54.734375 74.21875 63.90625 63.9375 
Q 73.09375 53.65625 73.09375 36.375 
Q 73.09375 23.6875 67.984375 14.640625 
Q 62.890625 5.609375 53.21875 1.3125 
" id="DejaVuSans-51"/>
     </defs>
     <g transform="translate(555.4 142.8703125)scale(0.1 -0.1)">
      <use xlink:href="#DejaVuSans-51"/>
     </g>
    </g>
    <g id="patch_102">
     <path d="M 527.4 157.548437 
L 547.4 157.548437 
L 547.4 150.548437 
L 527.4 150.548437 
z
" style="fill:#dfd4b3;stroke:#000000;stroke-linejoin:miter;"/>
    </g>
    <g id="text_17">
     <!-- P -->
     <defs>
      <path d="M 19.671875 64.796875 
L 19.671875 37.40625 
L 32.078125 37.40625 
Q 38.96875 37.40625 42.71875 40.96875 
Q 46.484375 44.53125 46.484375 51.125 
Q 46.484375 57.671875 42.71875 61.234375 
Q 38.96875 64.796875 32.078125 64.796875 
z
M 9.8125 72.90625 
L 32.078125 72.90625 
Q 44.34375 72.90625 50.609375 67.359375 
Q 56.890625 61.8125 56.890625 51.125 
Q 56.890625 40.328125 50.609375 34.8125 
Q 44.34375 29.296875 32.078125 29.296875 
L 19.671875 29.296875 
L 19.671875 0 
L 9.8125 0 
z
" id="DejaVuSans-50"/>
     </defs>
     <g transform="translate(555.4 157.5484375)scale(0.1 -0.1)">
      <use xlink:href="#DejaVuSans-50"/>
     </g>
    </g>
    <g id="patch_103">
     <path d="M 527.4 172.226562 
L 547.4 172.226562 
L 547.4 165.226562 
L 527.4 165.226562 
z
" style="fill:#bfdb7e;stroke:#000000;stroke-linejoin:miter;"/>
    </g>
    <g id="text_18">
     <!-- O -->
     <defs>
      <path d="M 39.40625 66.21875 
Q 28.65625 66.21875 22.328125 58.203125 
Q 16.015625 50.203125 16.015625 36.375 
Q 16.015625 22.609375 22.328125 14.59375 
Q 28.65625 6.59375 39.40625 6.59375 
Q 50.140625 6.59375 56.421875 14.59375 
Q 62.703125 22.609375 62.703125 36.375 
Q 62.703125 50.203125 56.421875 58.203125 
Q 50.140625 66.21875 39.40625 66.21875 
M 39.40625 74.21875 
Q 54.734375 74.21875 63.90625 63.9375 
Q 73.09375 53.65625 73.09375 36.375 
Q 73.09375 19.140625 63.90625 8.859375 
Q 54.734375 -1.421875 39.40625 -1.421875 
Q 24.03125 -1.421875 14.8125 8.828125 
Q 5.609375 19.09375 5.609375 36.375 
Q 5.609375 53.65625 14.8125 63.9375 
Q 24.03125 74.21875 39.40625 74.21875 
" id="DejaVuSans-4f"/>
     </defs>
     <g transform="translate(555.4 172.2265625)scale(0.1 -0.1)">
      <use xlink:href="#DejaVuSans-4f"/>
     </g>
    </g>
    <g id="patch_104">
     <path d="M 527.4 186.904687 
L 547.4 186.904687 
L 547.4 179.904687 
L 527.4 179.904687 
z
" style="fill:#c6d367;stroke:#000000;stroke-linejoin:miter;"/>
    </g>
    <g id="text_19">
     <!-- N -->
     <defs>
      <path d="M 9.8125 72.90625 
L 23.09375 72.90625 
L 55.421875 11.921875 
L 55.421875 72.90625 
L 64.984375 72.90625 
L 64.984375 0 
L 51.703125 0 
L 19.390625 60.984375 
L 19.390625 0 
L 9.8125 0 
z
" id="DejaVuSans-4e"/>
     </defs>
     <g transform="translate(555.4 186.9046875)scale(0.1 -0.1)">
      <use xlink:href="#DejaVuSans-4e"/>
     </g>
    </g>
    <g id="patch_105">
     <path d="M 527.4 201.582812 
L 547.4 201.582812 
L 547.4 194.582812 
L 527.4 194.582812 
z
" style="fill:#eabf64;stroke:#000000;stroke-linejoin:miter;"/>
    </g>
    <g id="text_20">
     <!-- M -->
     <defs>
      <path d="M 9.8125 72.90625 
L 24.515625 72.90625 
L 43.109375 23.296875 
L 61.8125 72.90625 
L 76.515625 72.90625 
L 76.515625 0 
L 66.890625 0 
L 66.890625 64.015625 
L 48.09375 14.015625 
L 38.1875 14.015625 
L 19.390625 64.015625 
L 19.390625 0 
L 9.8125 0 
z
" id="DejaVuSans-4d"/>
     </defs>
     <g transform="translate(555.4 201.5828125)scale(0.1 -0.1)">
      <use xlink:href="#DejaVuSans-4d"/>
     </g>
    </g>
    <g id="patch_106">
     <path d="M 527.4 216.260937 
L 547.4 216.260937 
L 547.4 209.260937 
L 527.4 209.260937 
z
" style="fill:#e8b375;stroke:#000000;stroke-linejoin:miter;"/>
    </g>
    <g id="text_21">
     <!-- L -->
     <defs>
      <path d="M 9.8125 72.90625 
L 19.671875 72.90625 
L 19.671875 8.296875 
L 55.171875 8.296875 
L 55.171875 0 
L 9.8125 0 
z
" id="DejaVuSans-4c"/>
     </defs>
     <g transform="translate(555.4 216.2609375)scale(0.1 -0.1)">
      <use xlink:href="#DejaVuSans-4c"/>
     </g>
    </g>
    <g id="patch_107">
     <path d="M 527.4 230.939062 
L 547.4 230.939062 
L 547.4 223.939062 
L 527.4 223.939062 
z
" style="fill:#b2b2a6;stroke:#000000;stroke-linejoin:miter;"/>
    </g>
    <g id="text_22">
     <!-- K -->
     <defs>
      <path d="M 9.8125 72.90625 
L 19.671875 72.90625 
L 19.671875 42.09375 
L 52.390625 72.90625 
L 65.09375 72.90625 
L 28.90625 38.921875 
L 67.671875 0 
L 54.6875 0 
L 19.671875 35.109375 
L 19.671875 0 
L 9.8125 0 
z
" id="DejaVuSans-4b"/>
     </defs>
     <g transform="translate(555.4 230.9390625)scale(0.1 -0.1)">
      <use xlink:href="#DejaVuSans-4b"/>
     </g>
    </g>
    <g id="patch_108">
     <path d="M 527.4 245.617187 
L 547.4 245.617187 
L 547.4 238.617187 
L 527.4 238.617187 
z
" style="fill:#84afd0;stroke:#000000;stroke-linejoin:miter;"/>
    </g>
    <g id="text_23">
     <!-- J -->
     <defs>
      <path d="M 9.8125 72.90625 
L 19.671875 72.90625 
L 19.671875 5.078125 
Q 19.671875 -8.109375 14.671875 -14.0625 
Q 9.671875 -20.015625 -1.421875 -20.015625 
L -5.171875 -20.015625 
L -5.171875 -11.71875 
L -2.09375 -11.71875 
Q 4.4375 -11.71875 7.125 -8.046875 
Q 9.8125 -4.390625 9.8125 5.078125 
z
" id="DejaVuSans-4a"/>
     </defs>
     <g transform="translate(555.4 245.6171875)scale(0.1 -0.1)">
      <use xlink:href="#DejaVuSans-4a"/>
     </g>
    </g>
    <g id="patch_109">
     <path d="M 527.4 260.295312 
L 547.4 260.295312 
L 547.4 253.295312 
L 527.4 253.295312 
z
" style="fill:#be98a2;stroke:#000000;stroke-linejoin:miter;"/>
    </g>
    <g id="text_24">
     <!-- I -->
     <defs>
      <path d="M 9.8125 72.90625 
L 19.671875 72.90625 
L 19.671875 0 
L 9.8125 0 
z
" id="DejaVuSans-49"/>
     </defs>
     <g transform="translate(555.4 260.2953125)scale(0.1 -0.1)">
      <use xlink:href="#DejaVuSans-49"/>
     </g>
    </g>
    <g id="patch_110">
     <path d="M 527.4 274.973437 
L 547.4 274.973437 
L 547.4 267.973437 
L 527.4 267.973437 
z
" style="fill:#f38378;stroke:#000000;stroke-linejoin:miter;"/>
    </g>
    <g id="text_25">
     <!-- H -->
     <defs>
      <path d="M 9.8125 72.90625 
L 19.671875 72.90625 
L 19.671875 43.015625 
L 55.515625 43.015625 
L 55.515625 72.90625 
L 65.375 72.90625 
L 65.375 0 
L 55.515625 0 
L 55.515625 34.71875 
L 19.671875 34.71875 
L 19.671875 0 
L 9.8125 0 
z
" id="DejaVuSans-48"/>
     </defs>
     <g transform="translate(555.4 274.9734375)scale(0.1 -0.1)">
      <use xlink:href="#DejaVuSans-48"/>
     </g>
    </g>
    <g id="patch_111">
     <path d="M 527.4 289.651562 
L 547.4 289.651562 
L 547.4 282.651562 
L 527.4 282.651562 
z
" style="fill:#e59598;stroke:#000000;stroke-linejoin:miter;"/>
    </g>
    <g id="text_26">
     <!-- G -->
     <defs>
      <path d="M 59.515625 10.40625 
L 59.515625 29.984375 
L 43.40625 29.984375 
L 43.40625 38.09375 
L 69.28125 38.09375 
L 69.28125 6.78125 
Q 63.578125 2.734375 56.6875 0.65625 
Q 49.8125 -1.421875 42 -1.421875 
Q 24.90625 -1.421875 15.25 8.5625 
Q 5.609375 18.5625 5.609375 36.375 
Q 5.609375 54.25 15.25 64.234375 
Q 24.90625 74.21875 42 74.21875 
Q 49.125 74.21875 55.546875 72.453125 
Q 61.96875 70.703125 67.390625 67.28125 
L 67.390625 56.78125 
Q 61.921875 61.421875 55.765625 63.765625 
Q 49.609375 66.109375 42.828125 66.109375 
Q 29.4375 66.109375 22.71875 58.640625 
Q 16.015625 51.171875 16.015625 36.375 
Q 16.015625 21.625 22.71875 14.15625 
Q 29.4375 6.6875 42.828125 6.6875 
Q 48.046875 6.6875 52.140625 7.59375 
Q 56.25 8.5 59.515625 10.40625 
" id="DejaVuSans-47"/>
     </defs>
     <g transform="translate(555.4 289.6515625)scale(0.1 -0.1)">
      <use xlink:href="#DejaVuSans-47"/>
     </g>
    </g>
    <g id="patch_112">
     <path d="M 527.4 304.329687 
L 547.4 304.329687 
L 547.4 297.329687 
L 527.4 297.329687 
z
" style="fill:#caaec5;stroke:#000000;stroke-linejoin:miter;"/>
    </g>
    <g id="text_27">
     <!-- F -->
     <defs>
      <path d="M 9.8125 72.90625 
L 51.703125 72.90625 
L 51.703125 64.59375 
L 19.671875 64.59375 
L 19.671875 43.109375 
L 48.578125 43.109375 
L 48.578125 34.8125 
L 19.671875 34.8125 
L 19.671875 0 
L 9.8125 0 
z
" id="DejaVuSans-46"/>
     </defs>
     <g transform="translate(555.4 304.3296875)scale(0.1 -0.1)">
      <use xlink:href="#DejaVuSans-46"/>
     </g>
    </g>
    <g id="patch_113">
     <path d="M 527.4 319.007812 
L 547.4 319.007812 
L 547.4 312.007812 
L 527.4 312.007812 
z
" style="fill:#d0cdcf;stroke:#000000;stroke-linejoin:miter;"/>
    </g>
    <g id="text_28">
     <!-- E -->
     <defs>
      <path d="M 9.8125 72.90625 
L 55.90625 72.90625 
L 55.90625 64.59375 
L 19.671875 64.59375 
L 19.671875 43.015625 
L 54.390625 43.015625 
L 54.390625 34.71875 
L 19.671875 34.71875 
L 19.671875 8.296875 
L 56.78125 8.296875 
L 56.78125 0 
L 9.8125 0 
z
" id="DejaVuSans-45"/>
     </defs>
     <g transform="translate(555.4 319.0078125)scale(0.1 -0.1)">
      <use xlink:href="#DejaVuSans-45"/>
     </g>
    </g>
    <g id="patch_114">
     <path d="M 527.4 333.685937 
L 547.4 333.685937 
L 547.4 326.685937 
L 527.4 326.685937 
z
" style="fill:#ecebbe;stroke:#000000;stroke-linejoin:miter;"/>
    </g>
    <g id="text_29">
     <!-- D -->
     <defs>
      <path d="M 19.671875 64.796875 
L 19.671875 8.109375 
L 31.59375 8.109375 
Q 46.6875 8.109375 53.6875 14.9375 
Q 60.6875 21.78125 60.6875 36.53125 
Q 60.6875 51.171875 53.6875 57.984375 
Q 46.6875 64.796875 31.59375 64.796875 
z
M 9.8125 72.90625 
L 30.078125 72.90625 
Q 51.265625 72.90625 61.171875 64.09375 
Q 71.09375 55.28125 71.09375 36.53125 
Q 71.09375 17.671875 61.125 8.828125 
Q 51.171875 0 30.078125 0 
L 9.8125 0 
z
" id="DejaVuSans-44"/>
     </defs>
     <g transform="translate(555.4 333.6859375)scale(0.1 -0.1)">
      <use xlink:href="#DejaVuSans-44"/>
     </g>
    </g>
    <g id="patch_115">
     <path d="M 527.4 348.364062 
L 547.4 348.364062 
L 547.4 341.364062 
L 527.4 341.364062 
z
" style="fill:#eff9b6;stroke:#000000;stroke-linejoin:miter;"/>
    </g>
    <g id="text_30">
     <!-- C -->
     <g transform="translate(555.4 348.3640625)scale(0.1 -0.1)">
      <use xlink:href="#DejaVuSans-43"/>
     </g>
    </g>
    <g id="patch_116">
     <path d="M 527.4 363.042187 
L 547.4 363.042187 
L 547.4 356.042187 
L 527.4 356.042187 
z
" style="fill:#bee6be;stroke:#000000;stroke-linejoin:miter;"/>
    </g>
    <g id="text_31">
     <!-- B -->
     <defs>
      <path d="M 19.671875 34.8125 
L 19.671875 8.109375 
L 35.5 8.109375 
Q 43.453125 8.109375 47.28125 11.40625 
Q 51.125 14.703125 51.125 21.484375 
Q 51.125 28.328125 47.28125 31.5625 
Q 43.453125 34.8125 35.5 34.8125 
z
M 19.671875 64.796875 
L 19.671875 42.828125 
L 34.28125 42.828125 
Q 41.5 42.828125 45.03125 45.53125 
Q 48.578125 48.25 48.578125 53.8125 
Q 48.578125 59.328125 45.03125 62.0625 
Q 41.5 64.796875 34.28125 64.796875 
z
M 9.8125 72.90625 
L 35.015625 72.90625 
Q 46.296875 72.90625 52.390625 68.21875 
Q 58.5 63.53125 58.5 54.890625 
Q 58.5 48.1875 55.375 44.234375 
Q 52.25 40.28125 46.1875 39.3125 
Q 53.46875 37.75 57.5 32.78125 
Q 61.53125 27.828125 61.53125 20.40625 
Q 61.53125 10.640625 54.890625 5.3125 
Q 48.25 0 35.984375 0 
L 9.8125 0 
z
" id="DejaVuSans-42"/>
     </defs>
     <g transform="translate(555.4 363.0421875)scale(0.1 -0.1)">
      <use xlink:href="#DejaVuSans-42"/>
     </g>
    </g>
    <g id="patch_117">
     <path d="M 527.4 377.720312 
L 547.4 377.720312 
L 547.4 370.720312 
L 527.4 370.720312 
z
" style="fill:#8dd3c7;stroke:#000000;stroke-linejoin:miter;"/>
    </g>
    <g id="text_32">
     <!-- A -->
     <g transform="translate(555.4 377.7203125)scale(0.1 -0.1)">
      <use xlink:href="#DejaVuSans-41"/>
     </g>
    </g>
   </g>
  </g>
 </g>
 <defs>
  <clipPath id="pc2965cde42">
   <rect height="345.6" width="446.4" x="72.0" y="43.2"/>
  </clipPath>
 </defs>
</svg>
